<svg data-v-423bf9ae="" xmlns="http://www.w3.org/2000/svg" viewBox="0 0 792 90" class="iconLeft"><!----><!----><!----><g data-v-423bf9ae="" id="f18ae7ba-2159-4b6a-8db2-d21154dfe7fd" fill="black" transform="matrix(5.714285714285714,0,0,5.714285714285714,61.152050026825464,-3.057143109185354)"><path d="M8.26 11.79L8.26 8.60L9.60 8.60L9.60 12.42Q8.88 13.02 7.91 13.34Q6.94 13.66 5.89 13.66L5.89 13.66Q4.41 13.66 3.22 13.01Q2.03 12.36 1.35 11.22Q0.67 10.08 0.67 8.65L0.67 8.65Q0.67 7.22 1.35 6.08Q2.03 4.93 3.23 4.28Q4.42 3.64 5.92 3.64L5.92 3.64Q7.10 3.64 8.06 4.02Q9.02 4.41 9.69 5.15L9.69 5.15L8.82 6.02Q7.64 4.89 5.98 4.89L5.98 4.89Q4.86 4.89 3.97 5.37Q3.08 5.85 2.58 6.71Q2.07 7.57 2.07 8.65L2.07 8.65Q2.07 9.72 2.58 10.58Q3.08 11.44 3.97 11.93Q4.86 12.42 5.96 12.42L5.96 12.42Q7.28 12.42 8.26 11.79L8.26 11.79ZM13.37 7.38Q13.72 6.73 14.41 6.40Q15.09 6.06 16.07 6.06L16.07 6.06L16.07 7.36Q15.96 7.35 15.76 7.35L15.76 7.35Q14.67 7.35 14.05 8.00Q13.43 8.65 13.43 9.86L13.43 9.86L13.43 13.55L12.08 13.55L12.08 6.13L13.37 6.13L13.37 7.38ZM20.83 13.64Q19.73 13.64 18.84 13.15Q17.96 12.66 17.47 11.79Q16.97 10.93 16.97 9.84L16.97 9.84Q16.97 8.75 17.47 7.89Q17.96 7.03 18.84 6.54Q19.73 6.06 20.83 6.06L20.83 6.06Q21.94 6.06 22.81 6.54Q23.69 7.03 24.19 7.89Q24.68 8.75 24.68 9.84L24.68 9.84Q24.68 10.93 24.19 11.79Q23.69 12.66 22.81 13.15Q21.94 13.64 20.83 13.64L20.83 13.64ZM20.83 12.46Q21.55 12.46 22.11 12.13Q22.68 11.80 23.00 11.21Q23.32 10.61 23.32 9.84L23.32 9.84Q23.32 9.07 23.00 8.48Q22.68 7.88 22.11 7.56Q21.55 7.24 20.83 7.24L20.83 7.24Q20.12 7.24 19.55 7.56Q18.98 7.88 18.66 8.48Q18.33 9.07 18.33 9.84L18.33 9.84Q18.33 10.61 18.66 11.21Q18.98 11.80 19.55 12.13Q20.12 12.46 20.83 12.46L20.83 12.46ZM36.36 6.13L37.56 6.13L34.79 13.55L33.50 13.55L31.36 7.92L29.19 13.55L27.90 13.55L25.14 6.13L26.42 6.13L28.57 12.04L30.81 6.13L31.95 6.13L34.15 12.07L36.36 6.13ZM42.88 12.15L43.30 13.12Q43.01 13.37 42.57 13.50Q42.14 13.64 41.68 13.64L41.68 13.64Q40.56 13.64 39.94 13.03Q39.33 12.43 39.33 11.31L39.33 11.31L39.33 7.24L38.07 7.24L38.07 6.13L39.33 6.13L39.33 4.51L40.67 4.51L40.67 6.13L42.80 6.13L42.80 7.24L40.67 7.24L40.67 11.26Q40.67 11.86 40.97 12.18Q41.27 12.50 41.83 12.50L41.83 12.50Q42.45 12.50 42.88 12.15L42.88 12.15ZM48.89 6.06Q50.30 6.06 51.14 6.88Q51.97 7.70 51.97 9.28L51.97 9.28L51.97 13.55L50.62 13.55L50.62 9.44Q50.62 8.36 50.11 7.81Q49.59 7.27 48.62 7.27L48.62 7.27Q47.53 7.27 46.90 7.90Q46.27 8.54 46.27 9.73L46.27 9.73L46.27 13.55L44.93 13.55L44.93 3.16L46.27 3.16L46.27 7.18Q46.69 6.65 47.37 6.36Q48.05 6.06 48.89 6.06L48.89 6.06ZM62.24 3.75Q64.15 3.75 65.24 4.66Q66.33 5.57 66.33 7.17L66.33 7.17Q66.33 8.76 65.24 9.67Q64.15 10.58 62.24 10.58L62.24 10.58L59.82 10.58L59.82 13.55L58.42 13.55L58.42 3.75L62.24 3.75ZM62.20 9.37Q63.53 9.37 64.23 8.80Q64.93 8.23 64.93 7.17L64.93 7.17Q64.93 6.10 64.23 5.54Q63.53 4.97 62.20 4.97L62.20 4.97L59.82 4.97L59.82 9.37L62.20 9.37ZM70.83 6.06Q72.37 6.06 73.19 6.82Q74.00 7.57 74.00 9.07L74.00 9.07L74.00 13.55L72.73 13.55L72.73 12.57Q72.39 13.09 71.77 13.36Q71.15 13.64 70.29 13.64L70.29 13.64Q69.05 13.64 68.30 13.03Q67.55 12.43 67.55 11.45L67.55 11.45Q67.55 10.47 68.26 9.88Q68.98 9.28 70.53 9.28L70.53 9.28L72.66 9.28L72.66 9.02Q72.66 8.15 72.16 7.69Q71.65 7.22 70.67 7.22L70.67 7.22Q70.01 7.22 69.38 7.44Q68.75 7.66 68.32 8.02L68.32 8.02L67.76 7.01Q68.33 6.55 69.13 6.31Q69.93 6.06 70.83 6.06L70.83 6.06ZM70.52 12.60Q71.29 12.60 71.85 12.26Q72.41 11.91 72.66 11.28L72.66 11.28L72.66 10.25L70.59 10.25Q68.88 10.25 68.88 11.40L68.88 11.40Q68.88 11.96 69.31 12.28Q69.75 12.60 70.52 12.60L70.52 12.60ZM77.78 7.38Q78.13 6.73 78.82 6.40Q79.51 6.06 80.49 6.06L80.49 6.06L80.49 7.36Q80.37 7.35 80.18 7.35L80.18 7.35Q79.09 7.35 78.46 8.00Q77.84 8.65 77.84 9.86L77.84 9.86L77.84 13.55L76.50 13.55L76.50 6.13L77.78 6.13L77.78 7.38ZM86.20 12.15L86.62 13.12Q86.32 13.37 85.89 13.50Q85.46 13.64 84.99 13.64L84.99 13.64Q83.87 13.64 83.26 13.03Q82.64 12.43 82.64 11.31L82.64 11.31L82.64 7.24L81.38 7.24L81.38 6.13L82.64 6.13L82.64 4.51L83.99 4.51L83.99 6.13L86.11 6.13L86.11 7.24L83.99 7.24L83.99 11.26Q83.99 11.86 84.29 12.18Q84.59 12.50 85.15 12.50L85.15 12.50Q85.76 12.50 86.20 12.15L86.20 12.15ZM92.20 6.06Q93.62 6.06 94.45 6.88Q95.28 7.70 95.28 9.28L95.28 9.28L95.28 13.55L93.94 13.55L93.94 9.44Q93.94 8.36 93.42 7.81Q92.90 7.27 91.94 7.27L91.94 7.27Q90.85 7.27 90.22 7.90Q89.59 8.54 89.59 9.73L89.59 9.73L89.59 13.55L88.24 13.55L88.24 6.13L89.53 6.13L89.53 7.25Q89.94 6.68 90.63 6.37Q91.32 6.06 92.20 6.06L92.20 6.06ZM104.52 9.88Q104.52 10.04 104.50 10.29L104.50 10.29L98.48 10.29Q98.60 11.27 99.34 11.87Q100.07 12.46 101.16 12.46L101.16 12.46Q102.49 12.46 103.31 11.56L103.31 11.56L104.05 12.43Q103.54 13.02 102.80 13.33Q102.05 13.64 101.12 13.64L101.12 13.64Q99.95 13.64 99.04 13.15Q98.13 12.67 97.63 11.80Q97.13 10.93 97.13 9.84L97.13 9.84Q97.13 8.76 97.62 7.90Q98.10 7.03 98.95 6.54Q99.79 6.06 100.86 6.06L100.86 6.06Q101.92 6.06 102.75 6.54Q103.59 7.03 104.06 7.90Q104.52 8.76 104.52 9.88L104.52 9.88ZM100.86 7.20Q99.89 7.20 99.24 7.78Q98.59 8.37 98.48 9.32L98.48 9.32L103.24 9.32Q103.12 8.39 102.47 7.79Q101.82 7.20 100.86 7.20L100.86 7.20ZM107.67 7.38Q108.02 6.73 108.71 6.40Q109.40 6.06 110.38 6.06L110.38 6.06L110.38 7.36Q110.26 7.35 110.07 7.35L110.07 7.35Q108.98 7.35 108.35 8.00Q107.73 8.65 107.73 9.86L107.73 9.86L107.73 13.55L106.39 13.55L106.39 6.13L107.67 6.13L107.67 7.38ZM123.41 13.55L122.33 11.10L117.12 11.10L116.05 13.55L114.60 13.55L119.04 3.75L120.43 3.75L124.88 13.55L123.41 13.55ZM117.61 9.98L121.84 9.98L119.73 5.18L117.61 9.98ZM126.34 13.55L126.34 3.75L127.74 3.75L127.74 13.55L126.34 13.55Z"></path></g><!----><g data-v-423bf9ae="" id="a474b3e9-6c48-4bab-b77c-42d22cd314ab" transform="matrix(1.2499826486664904,0,0,1.2499826486664904,-22.00275108104607,1.000249311485483)" stroke="none" fill="black"><path d="M44.02 64.983l10.016 6-1.954-19.953-5.078-5.055c1.071-2.699 1.906-6.517 1.996-11.868 0 0 .032-1.046.032-1.34 0-18.026-12.02-32.758-12.919-32.758-.01 0-.043-.01-.07-.01-.04 0-.086.01-.086.01-.907 0-12.996 14.731-12.996 32.758 0 .294.029 1.34.029 1.34.095 5.351 1.012 9.168 2.076 11.868l-5.031 5.023-1.984 20 9.984-6 15.985-.015zm-7.974-50.026c2.49 0 4.51 2.02 4.51 4.521a4.513 4.513 0 01-9.026 0 4.515 4.515 0 014.516-4.521z"></path><path d="M33.035 72h5.985l5.031-3.97H28.035z"></path></g><!----></svg>